<svg width="11" height="10" viewBox="0 0 11 10" fill="none" xmlns="http://www.w3.org/2000/svg">
<path d="M6.44999 0.722102L7.42065 2.49668C7.55145 2.7421 7.90253 2.97493 8.19855 3.02527L9.95399 3.28957C11.0761 3.45948 11.3377 4.20203 10.5323 4.94459L9.16232 6.19686C8.93515 6.40452 8.80435 6.81355 8.88008 7.10932L9.27247 8.65735C9.58225 9.87816 8.86631 10.3564 7.68913 9.71455L6.04383 8.82097C5.74781 8.65735 5.25216 8.65735 4.95614 8.82097L3.31084 9.71455C2.13367 10.3501 1.41774 9.87816 1.72752 8.65735L2.11992 7.10932C2.19564 6.81985 2.06484 6.41081 1.83767 6.19686L0.467742 4.94459C-0.337696 4.20833 -0.0761012 3.46577 1.04601 3.28957L2.80142 3.02527C3.09744 2.98123 3.44853 2.7421 3.57932 2.49668L4.54998 0.722102C5.06629 -0.2407 5.91992 -0.2407 6.44999 0.722102Z" fill="#292D32"/>
</svg>
