<svg width="32" height="32" viewBox="0 0 32 32" fill="none" xmlns="http://www.w3.org/2000/svg">
<g clip-path="url(#clip0_35_142)">
<path d="M12 0.00500488C18.627 0.00500488 24 5.37801 24 12.005C24 14.031 23.493 15.938 22.605 17.613L30.949 25.955L30.942 25.961C31.594 26.602 32 27.49 32 28.477C32 30.426 30.42 32.006 28.471 32.006C27.486 32.006 26.597 31.6 25.956 30.947L25.958 30.945L17.617 22.605C15.941 23.496 14.031 24.005 12 24.005C5.373 24.005 0 18.632 0 12.005C0 5.37801 5.373 0.00500488 12 0.00500488ZM27.205 29.697C27.527 30.031 27.973 30.24 28.471 30.24C29.446 30.24 30.236 29.451 30.236 28.476C30.236 27.978 30.026 27.533 29.693 27.21L29.702 27.202L21.636 19.136C20.931 20.087 20.091 20.927 19.142 21.634L27.205 29.697ZM12 22.006C17.522 22.006 22 17.527 22 12.006C22 6.484 17.522 2.006 12 2.006C6.479 2.006 2 6.484 2 12.006C2 17.527 6.479 22.006 12 22.006Z" fill="#333333"/>
<path d="M12 5.005C15.867 5.005 19 8.139 19 12.005C19 12.281 18.776 12.505 18.5 12.505C18.224 12.505 18 12.281 18 12.005C18 8.692 15.314 6.005 12 6.005C11.725 6.005 11.5 5.781 11.5 5.505C11.5 5.229 11.725 5.005 12 5.005Z" fill="#333333"/>
</g>
<defs>
<clipPath id="clip0_35_142">
<rect width="32" height="32" fill="white" transform="matrix(-1 0 0 1 32 0)"/>
</clipPath>
</defs>
</svg>
