<svg width="33" height="33" viewBox="0 0 33 33" fill="none" xmlns="http://www.w3.org/2000/svg">
<path d="M0.944225 26.5824H3.55136V18.9234L2.09407 19.3746C2.06236 19.3845 2.02932 19.3895 1.9961 19.3894C1.91628 19.3912 1.83856 19.3638 1.77746 19.3124C1.71635 19.261 1.67604 19.1891 1.66404 19.1102C1.65204 19.0313 1.66918 18.9507 1.71226 18.8835C1.75534 18.8162 1.82141 18.767 1.89813 18.7449L14.607 14.7849V11.7949L12.4955 13.3824C12.4387 13.4251 12.3693 13.4477 12.2983 13.4469C12.2293 13.4471 12.1619 13.4255 12.1059 13.3853C12.0498 13.345 12.0079 13.2881 11.986 13.2226C11.9642 13.1572 11.9635 13.0865 11.9842 13.0206C12.0048 12.9548 12.0457 12.8971 12.1011 12.8558L21.4539 5.82658C21.5106 5.7836 21.5799 5.76035 21.6511 5.76035C21.7223 5.76035 21.7915 5.7836 21.8483 5.82658L31.2011 12.8597C31.2657 12.9135 31.3071 12.99 31.3169 13.0735C31.3267 13.1569 31.3041 13.241 31.2538 13.3083C31.2034 13.3755 31.1292 13.4209 31.0463 13.4351C30.9635 13.4493 30.8784 13.4311 30.8086 13.3843L28.6952 11.7949V26.5805H32.0557C32.1429 26.5805 32.2265 26.6151 32.2882 26.6768C32.3498 26.7384 32.3845 26.822 32.3845 26.9092C32.3845 26.9964 32.3498 27.08 32.2882 27.1416C32.2265 27.2033 32.1429 27.2379 32.0557 27.2379H0.944225C0.901058 27.2379 0.858313 27.2294 0.818432 27.2129C0.778551 27.1964 0.742315 27.1721 0.711792 27.1416C0.681269 27.1111 0.657055 27.0749 0.640535 27.035C0.624016 26.9951 0.615513 26.9524 0.615513 26.9092C0.615513 26.866 0.624016 26.8233 0.640535 26.7834C0.657055 26.7435 0.681269 26.7073 0.711792 26.6768C0.742315 26.6462 0.778551 26.622 0.818432 26.6055C0.858313 26.589 0.901058 26.5805 0.944225 26.5805V26.5824ZM4.20877 18.7191V26.5824H14.607V15.4739L4.20877 18.7191ZM23.9869 26.5824V23.3462C23.9862 22.734 23.7427 22.147 23.3097 21.714C22.8768 21.2811 22.2898 21.0375 21.6775 21.0369H21.6247C21.0124 21.0375 20.4254 21.2811 19.9924 21.714C19.5595 22.147 19.316 22.734 19.3153 23.3462V26.5824H23.9869ZM18.6579 26.5824V23.3462C18.6592 22.5603 18.972 21.807 19.5278 21.2513C20.0835 20.6955 20.8368 20.3827 21.6227 20.3814H21.6756C22.4615 20.3827 23.2148 20.6955 23.7705 21.2513C24.3263 21.807 24.6391 22.5603 24.6404 23.3462V26.5824H28.0371V11.3025L21.6504 6.50011L15.2638 11.3025V26.5824H18.6579Z" fill="black"/>
<path d="M24.4741 14.3086C24.9528 14.3086 25.4118 14.4987 25.7502 14.8372C26.0887 15.1756 26.2788 15.6346 26.2788 16.1133V18.1062C26.2788 18.1933 26.2442 18.2769 26.1825 18.3386C26.1209 18.4002 26.0373 18.4349 25.9501 18.4349H22.9711C22.8839 18.4349 22.8003 18.4002 22.7386 18.3386C22.677 18.2769 22.6424 18.1933 22.6424 18.1062V16.1133C22.6433 15.8743 22.6915 15.6378 22.7842 15.4175C22.8769 15.1972 23.0123 14.9974 23.1826 14.8296C23.3528 14.6619 23.5546 14.5295 23.7763 14.4401C23.9979 14.3506 24.2351 14.3059 24.4741 14.3086ZM23.2985 17.7762H25.6188V16.1133C25.6188 15.8056 25.4966 15.5105 25.279 15.2929C25.0614 15.0753 24.7663 14.9531 24.4587 14.9531C24.151 14.9531 23.8559 15.0753 23.6383 15.2929C23.4207 15.5105 23.2985 15.8056 23.2985 16.1133V17.7762Z" fill="black"/>
<path d="M18.8577 14.3086C19.3363 14.3086 19.7953 14.4987 20.1338 14.8372C20.4722 15.1756 20.6624 15.6346 20.6624 16.1133V18.1062C20.6624 18.1933 20.6277 18.2769 20.5661 18.3386C20.5044 18.4002 20.4208 18.4349 20.3336 18.4349H17.3546C17.2674 18.4349 17.1838 18.4002 17.1222 18.3386C17.0605 18.2769 17.0259 18.1933 17.0259 18.1062V16.1133C17.0268 15.8743 17.075 15.6378 17.1678 15.4175C17.2605 15.1972 17.3959 14.9974 17.5661 14.8296C17.7364 14.6619 17.9382 14.5295 18.1598 14.4401C18.3815 14.3506 18.6187 14.3059 18.8577 14.3086ZM17.682 17.7762H20.0024V16.1133C20.0024 15.8056 19.8801 15.5105 19.6626 15.2929C19.445 15.0753 19.1499 14.9531 18.8422 14.9531C18.5345 14.9531 18.2394 15.0753 18.0218 15.2929C17.8043 15.5105 17.682 15.8056 17.682 16.1133V17.7762Z" fill="black"/>
<path d="M12.6612 23.7188H10.3724C10.2852 23.7188 10.2016 23.6841 10.14 23.6225C10.0783 23.5608 10.0437 23.4772 10.0437 23.39V21.8619C10.0518 21.4765 10.2105 21.1097 10.4859 20.84C10.7613 20.5703 11.1314 20.4193 11.5168 20.4193C11.9022 20.4193 12.2723 20.5703 12.5477 20.84C12.8231 21.1097 12.9818 21.4765 12.9899 21.8619V23.3926C12.9892 23.4794 12.9543 23.5623 12.8927 23.6234C12.8311 23.6845 12.7479 23.7188 12.6612 23.7188ZM12.3324 21.8593C12.3265 21.6469 12.2379 21.4453 12.0856 21.2972C11.9333 21.1491 11.7292 21.0662 11.5168 21.0662C11.3044 21.0662 11.1003 21.1491 10.948 21.2972C10.7957 21.4453 10.7071 21.6469 10.7011 21.8593V23.0613H12.3324V21.8593Z" fill="black"/>
<path d="M8.46591 23.7188H6.17717C6.08999 23.7188 6.00639 23.6841 5.94474 23.6225C5.8831 23.5608 5.84846 23.4772 5.84846 23.39V21.8619C5.85652 21.4765 6.01526 21.1097 6.29064 20.84C6.56602 20.5703 6.93611 20.4193 7.32154 20.4193C7.70697 20.4193 8.07706 20.5703 8.35244 20.84C8.62782 21.1097 8.78656 21.4765 8.79462 21.8619V23.3926C8.79394 23.4794 8.759 23.5623 8.69743 23.6234C8.63586 23.6845 8.55264 23.7188 8.46591 23.7188ZM8.13719 21.8593C8.13122 21.6469 8.04267 21.4453 7.89036 21.2972C7.73804 21.1491 7.53398 21.0662 7.32154 21.0662C7.1091 21.0662 6.90504 21.1491 6.75272 21.2972C6.60041 21.4453 6.51186 21.6469 6.50589 21.8593V23.0613H8.13719V21.8593Z" fill="black"/>
</svg>
